<mxfile host="app.diagrams.net" agent="Mozilla/5.0 (Windows NT 10.0; Win64; x64) AppleWebKit/537.36 (KHTML, like Gecko) Chrome/129.0.0.0 Safari/537.36" version="24.7.17">
  <diagram name="Page-1" id="acsbL7JASMrRTYuctGgO">
    <mxGraphModel grid="1" page="1" gridSize="10" guides="1" tooltips="1" connect="1" arrows="1" fold="1" pageScale="1" pageWidth="850" pageHeight="1100" math="0" shadow="0">
      <root>
        <mxCell id="0" />
        <mxCell id="1" parent="0" />
        <mxCell id="Bq7FcE38kekh25CNx1w1-1" value="&lt;font face=&quot;Lucida Console&quot;&gt;User&lt;/font&gt;" style="shape=umlActor;verticalLabelPosition=bottom;verticalAlign=top;html=1;outlineConnect=0;hachureGap=4;fontFamily=Architects Daughter;fontSource=https%3A%2F%2Ffonts.googleapis.com%2Fcss%3Ffamily%3DArchitects%2BDaughter;" vertex="1" parent="1">
          <mxGeometry x="150" y="60" width="30" height="60" as="geometry" />
        </mxCell>
        <mxCell id="Bq7FcE38kekh25CNx1w1-2" value="SAFEKASASIRO SYSTEM" style="rounded=1;whiteSpace=wrap;html=1;" vertex="1" parent="1">
          <mxGeometry x="350" y="90" width="110" height="40" as="geometry" />
        </mxCell>
        <mxCell id="Bq7FcE38kekh25CNx1w1-5" value="" style="html=1;points=[[0,0,0,0,5],[0,1,0,0,-5],[1,0,0,0,5],[1,1,0,0,-5]];perimeter=orthogonalPerimeter;outlineConnect=0;targetShapes=umlLifeline;portConstraint=eastwest;newEdgeStyle={&quot;curved&quot;:0,&quot;rounded&quot;:0};" vertex="1" parent="1">
          <mxGeometry x="160" y="178" width="10" height="582" as="geometry" />
        </mxCell>
        <mxCell id="Bq7FcE38kekh25CNx1w1-6" value="" style="html=1;points=[[0,0,0,0,5],[0,1,0,0,-5],[1,0,0,0,5],[1,1,0,0,-5]];perimeter=orthogonalPerimeter;outlineConnect=0;targetShapes=umlLifeline;portConstraint=eastwest;newEdgeStyle={&quot;curved&quot;:0,&quot;rounded&quot;:0};" vertex="1" parent="1">
          <mxGeometry x="400" y="178" width="10" height="582" as="geometry" />
        </mxCell>
        <mxCell id="Bq7FcE38kekh25CNx1w1-8" value="" style="endArrow=classic;html=1;rounded=0;" edge="1" parent="1">
          <mxGeometry width="50" height="50" relative="1" as="geometry">
            <mxPoint x="170" y="180" as="sourcePoint" />
            <mxPoint x="400" y="180" as="targetPoint" />
          </mxGeometry>
        </mxCell>
        <mxCell id="Bq7FcE38kekh25CNx1w1-11" value="" style="endArrow=classic;html=1;rounded=0;" edge="1" parent="1">
          <mxGeometry width="50" height="50" relative="1" as="geometry">
            <mxPoint x="400" y="260" as="sourcePoint" />
            <mxPoint x="170" y="260" as="targetPoint" />
          </mxGeometry>
        </mxCell>
        <mxCell id="Bq7FcE38kekh25CNx1w1-13" value="Login" style="text;html=1;align=center;verticalAlign=middle;resizable=0;points=[];autosize=1;strokeColor=none;fillColor=none;" vertex="1" parent="1">
          <mxGeometry x="260" y="150" width="50" height="30" as="geometry" />
        </mxCell>
        <mxCell id="Bq7FcE38kekh25CNx1w1-16" value="Display account details" style="text;html=1;align=center;verticalAlign=middle;resizable=0;points=[];autosize=1;strokeColor=none;fillColor=none;" vertex="1" parent="1">
          <mxGeometry x="215" y="230" width="150" height="30" as="geometry" />
        </mxCell>
        <mxCell id="Bq7FcE38kekh25CNx1w1-17" value="" style="endArrow=classic;html=1;rounded=0;" edge="1" parent="1">
          <mxGeometry width="50" height="50" relative="1" as="geometry">
            <mxPoint x="170" y="330" as="sourcePoint" />
            <mxPoint x="400" y="330" as="targetPoint" />
            <Array as="points">
              <mxPoint x="360" y="330" />
            </Array>
          </mxGeometry>
        </mxCell>
        <mxCell id="Bq7FcE38kekh25CNx1w1-18" value="Request rubbish collection" style="text;html=1;align=center;verticalAlign=middle;resizable=0;points=[];autosize=1;strokeColor=none;fillColor=none;" vertex="1" parent="1">
          <mxGeometry x="205" y="300" width="160" height="30" as="geometry" />
        </mxCell>
        <mxCell id="Bq7FcE38kekh25CNx1w1-30" value="" style="endArrow=classic;html=1;rounded=0;" edge="1" parent="1">
          <mxGeometry width="50" height="50" relative="1" as="geometry">
            <mxPoint x="400" y="510" as="sourcePoint" />
            <mxPoint x="170" y="510" as="targetPoint" />
          </mxGeometry>
        </mxCell>
        <mxCell id="b6ifalgiwZSf533ZK-6y-1" value="DIspatcher" style="shape=umlActor;verticalLabelPosition=bottom;verticalAlign=top;html=1;outlineConnect=0;" vertex="1" parent="1">
          <mxGeometry x="640" y="50" width="30" height="60" as="geometry" />
        </mxCell>
        <mxCell id="b6ifalgiwZSf533ZK-6y-23" value="&lt;font style=&quot;font-size: 20px;&quot;&gt;&lt;b&gt;SAFEKASASIRO SEQUENCE DIAGRAM&lt;/b&gt;&lt;/font&gt;" style="text;html=1;align=center;verticalAlign=middle;resizable=0;points=[];autosize=1;strokeColor=none;fillColor=none;" vertex="1" parent="1">
          <mxGeometry x="200" y="10" width="400" height="40" as="geometry" />
        </mxCell>
        <mxCell id="dSddNWUcvf2MnWK6Efac-3" value="" style="html=1;points=[[0,0,0,0,5],[0,1,0,0,-5],[1,0,0,0,5],[1,1,0,0,-5]];perimeter=orthogonalPerimeter;outlineConnect=0;targetShapes=umlLifeline;portConstraint=eastwest;newEdgeStyle={&quot;curved&quot;:0,&quot;rounded&quot;:0};" vertex="1" parent="1">
          <mxGeometry x="650" y="178" width="10" height="582" as="geometry" />
        </mxCell>
        <mxCell id="dSddNWUcvf2MnWK6Efac-4" value="" style="endArrow=classic;html=1;rounded=0;" edge="1" parent="1" target="dSddNWUcvf2MnWK6Efac-3">
          <mxGeometry width="50" height="50" relative="1" as="geometry">
            <mxPoint x="410" y="380" as="sourcePoint" />
            <mxPoint x="640" y="380" as="targetPoint" />
          </mxGeometry>
        </mxCell>
        <mxCell id="dSddNWUcvf2MnWK6Efac-5" value="Assign on-ground dispatcher to collect" style="text;html=1;align=center;verticalAlign=middle;resizable=0;points=[];autosize=1;strokeColor=none;fillColor=none;" vertex="1" parent="1">
          <mxGeometry x="415" y="349" width="230" height="30" as="geometry" />
        </mxCell>
        <mxCell id="dSddNWUcvf2MnWK6Efac-6" value="Send notification of status" style="text;html=1;align=center;verticalAlign=middle;resizable=0;points=[];autosize=1;strokeColor=none;fillColor=none;" vertex="1" parent="1">
          <mxGeometry x="450" y="420" width="160" height="30" as="geometry" />
        </mxCell>
        <mxCell id="dSddNWUcvf2MnWK6Efac-7" value="" style="endArrow=classic;html=1;rounded=0;" edge="1" parent="1" source="dSddNWUcvf2MnWK6Efac-3" target="Bq7FcE38kekh25CNx1w1-6">
          <mxGeometry width="50" height="50" relative="1" as="geometry">
            <mxPoint x="565" y="470" as="sourcePoint" />
            <mxPoint x="440" y="460" as="targetPoint" />
            <Array as="points">
              <mxPoint x="530" y="450" />
            </Array>
          </mxGeometry>
        </mxCell>
        <mxCell id="dSddNWUcvf2MnWK6Efac-8" value="Send status notification to user" style="text;html=1;align=center;verticalAlign=middle;resizable=0;points=[];autosize=1;strokeColor=none;fillColor=none;" vertex="1" parent="1">
          <mxGeometry x="190" y="480" width="190" height="30" as="geometry" />
        </mxCell>
        <mxCell id="dSddNWUcvf2MnWK6Efac-10" value="" style="endArrow=classic;html=1;rounded=0;" edge="1" parent="1">
          <mxGeometry width="50" height="50" relative="1" as="geometry">
            <mxPoint x="410" y="559" as="sourcePoint" />
            <mxPoint x="650" y="559" as="targetPoint" />
          </mxGeometry>
        </mxCell>
        <mxCell id="dSddNWUcvf2MnWK6Efac-11" value="Dispatcher confirms collection of rubbish" style="text;html=1;align=center;verticalAlign=middle;resizable=0;points=[];autosize=1;strokeColor=none;fillColor=none;" vertex="1" parent="1">
          <mxGeometry x="410" y="530" width="240" height="30" as="geometry" />
        </mxCell>
        <mxCell id="dSddNWUcvf2MnWK6Efac-12" value="Send confirmation to user" style="text;html=1;align=center;verticalAlign=middle;resizable=0;points=[];autosize=1;strokeColor=none;fillColor=none;" vertex="1" parent="1">
          <mxGeometry x="450" y="610" width="160" height="30" as="geometry" />
        </mxCell>
        <mxCell id="dSddNWUcvf2MnWK6Efac-13" value="" style="endArrow=classic;html=1;rounded=0;" edge="1" parent="1">
          <mxGeometry width="50" height="50" relative="1" as="geometry">
            <mxPoint x="650" y="639" as="sourcePoint" />
            <mxPoint x="410" y="639" as="targetPoint" />
          </mxGeometry>
        </mxCell>
        <mxCell id="dSddNWUcvf2MnWK6Efac-14" value="Send confirmation to user" style="text;html=1;align=center;verticalAlign=middle;resizable=0;points=[];autosize=1;strokeColor=none;fillColor=none;" vertex="1" parent="1">
          <mxGeometry x="205" y="660" width="160" height="30" as="geometry" />
        </mxCell>
        <mxCell id="dSddNWUcvf2MnWK6Efac-15" value="" style="endArrow=classic;html=1;rounded=0;" edge="1" parent="1" target="Bq7FcE38kekh25CNx1w1-5">
          <mxGeometry width="50" height="50" relative="1" as="geometry">
            <mxPoint x="400" y="690" as="sourcePoint" />
            <mxPoint x="180" y="689" as="targetPoint" />
          </mxGeometry>
        </mxCell>
        <mxCell id="dSddNWUcvf2MnWK6Efac-16" value="" style="endArrow=classic;html=1;rounded=0;" edge="1" parent="1">
          <mxGeometry width="50" height="50" relative="1" as="geometry">
            <mxPoint x="170" y="750" as="sourcePoint" />
            <mxPoint x="400" y="750" as="targetPoint" />
            <Array as="points">
              <mxPoint x="360" y="750" />
            </Array>
          </mxGeometry>
        </mxCell>
        <mxCell id="dSddNWUcvf2MnWK6Efac-17" value="User rates the sevice" style="text;html=1;align=center;verticalAlign=middle;resizable=0;points=[];autosize=1;strokeColor=none;fillColor=none;" vertex="1" parent="1">
          <mxGeometry x="215" y="720" width="140" height="30" as="geometry" />
        </mxCell>
      </root>
    </mxGraphModel>
  </diagram>
</mxfile>
